<svg id="Réteg_1" data-name="Réteg 1" xmlns="http://www.w3.org/2000/svg" viewBox="0 0 338.6 70"><defs><style>.cls-1{fill:#8032a0;stroke:#fff;stroke-miterlimit:10;stroke-width:3px;}.cls-2{isolation:isolate;}.cls-3{fill:#fff;}</style></defs><title>logo-01</title><polygon class="cls-1" points="79 32.88 58.42 42.79 63.99 16.55 49.55 37.12 44.55 10.6 39.54 37.12 25.01 16.55 30.67 42.79 10 32.88 24.82 52.79 24.82 61.29 64.18 61.29 64.18 52.79 79 32.88"/><g class="cls-2"><path class="cls-3" d="M109.27,33.05l-3.8,15a14.55,14.55,0,0,0,2.17.2,14.15,14.15,0,0,0,3.07-.42l-.28,1.38a15,15,0,0,1-2.94.4c-.73,0-1.82-.07-3.25-.2-1.26-.13-2.31-.2-3.13-.2a25,25,0,0,0-5.23.65l.42-1.58a11.83,11.83,0,0,0,4-1.56,8.08,8.08,0,0,0,2.18-4.27l4-15.81a26.26,26.26,0,0,0,.73-3.57.88.88,0,0,0-.35-.76,2.49,2.49,0,0,0-1.4-.23l.37-1.36a29.27,29.27,0,0,0,6.82-1c-.23.72-.52,1.77-.88,3.17l-2.12,8.34a11.39,11.39,0,0,0,2.29.28A8.33,8.33,0,0,0,118,29a8,8,0,0,0,2.52-5.87,5.39,5.39,0,0,0-2-4.33,8.3,8.3,0,0,0-5.5-1.7,19,19,0,0,0-8.67,2.15A16.23,16.23,0,0,0,98,24.6a11.91,11.91,0,0,0-2.12,6.67A5.78,5.78,0,0,0,98,35.79a7.81,7.81,0,0,1,1.36,1.36,1.73,1.73,0,0,1,.25.91,1.42,1.42,0,0,1-.44,1,1.46,1.46,0,0,1-1.07.44,3.37,3.37,0,0,1-2.73-1.78A10.19,10.19,0,0,1,93.87,32a14.84,14.84,0,0,1,2.4-8.12,17.94,17.94,0,0,1,7.29-6.22,22.53,22.53,0,0,1,10.28-2.46,16.33,16.33,0,0,1,8.29,1.89,6.1,6.1,0,0,1,3.25,5.6,9.07,9.07,0,0,1-3,6.48,14.47,14.47,0,0,1-8.2,3.85c.86,1.74,1.42,2.9,1.66,3.51.4,1,1,2.73,1.81,5.15q2.85,8.48,5.91,11.95a6.54,6.54,0,0,0,4.89,2.53A3.28,3.28,0,0,0,132,53.75a4.74,4.74,0,0,1,.85-1.92,1.7,1.7,0,0,1,1.21-.5,1.53,1.53,0,0,1,1.15.48,1.6,1.6,0,0,1,.47,1.16,4.44,4.44,0,0,1-1.93,3.34,7.55,7.55,0,0,1-4.95,1.58,11,11,0,0,1-5.24-1.33,15.77,15.77,0,0,1-4.87-4.34A31.33,31.33,0,0,1,114.53,45c-.58-1.41-1.44-4-2.57-7.78-.68-2.3-1.1-3.68-1.27-4.13L110,33A6.19,6.19,0,0,0,109.27,33.05Z"/><path class="cls-3" d="M142.1,25.44a5.76,5.76,0,0,1,4.62,2.21,9.33,9.33,0,0,1,1.84,6.14,16.6,16.6,0,0,1-4.42,11.27q-4.41,5-9.33,5a6.36,6.36,0,0,1-4.88-2,7.57,7.57,0,0,1-1.86-5.4,19.21,19.21,0,0,1,3.4-11Q135.75,25.44,142.1,25.44Zm-2.4,2.12q-2.4,0-4.65,3.44t-2.25,9.49a10.54,10.54,0,0,0,1.38,5.8,3.12,3.12,0,0,0,2.72,1.56c1.58,0,3-1,4.33-3a17,17,0,0,0,2.49-9.47q0-4.24-1.15-6.06A3.35,3.35,0,0,0,139.7,27.56Z"/><path class="cls-3" d="M151.16,31.21l-.91-1.33,2.1-1.41a37,37,0,0,1,4.3-2.69,3,3,0,0,1,1.3-.34,1.5,1.5,0,0,1,1.13.68,26.48,26.48,0,0,1,4.19,8.46A34.06,34.06,0,0,1,165,44.92c0,.43,0,1.09-.05,2q4.77-8.8,4.78-14a11.7,11.7,0,0,0-.48-2.86,13.12,13.12,0,0,1-.51-2.83,1.88,1.88,0,0,1,.52-1.36,1.79,1.79,0,0,1,1.32-.53,2,2,0,0,1,1.6.76,3.47,3.47,0,0,1,.6,2.18,32.24,32.24,0,0,1-1.66,9.09,59.14,59.14,0,0,1-5.25,11.72,47.57,47.57,0,0,1-6.54,9.3,20.62,20.62,0,0,1-5.71,4.36,12.13,12.13,0,0,1-5.22,1.32,4.69,4.69,0,0,1-2.82-.7,2,2,0,0,1-.95-1.65,1.85,1.85,0,0,1,.74-1.46,3,3,0,0,1,2-.61,13.42,13.42,0,0,1,2.63.37,13.34,13.34,0,0,0,2.43.4A6.18,6.18,0,0,0,156,59a15.25,15.25,0,0,0,4.18-4.72,11.19,11.19,0,0,0,1.54-5.54,47.21,47.21,0,0,0-1.15-9.45,22.2,22.2,0,0,0-3.24-8.42,2.84,2.84,0,0,0-2.23-1.5C154.19,29.34,152.87,30,151.16,31.21Z"/><path class="cls-3" d="M193.71,25l1.86-.4-2.12,7.16q-1.27,4.28-2.4,9.85a25.21,25.21,0,0,0-.62,3.9c0,.58.23.88.7.88a3.35,3.35,0,0,0,1.45-.6,18.28,18.28,0,0,0,3.36-2.6l.91,1.1q-3.22,2.94-4.13,3.57a15.79,15.79,0,0,1-3.45,1.84,6.16,6.16,0,0,1-2.1.39,1.54,1.54,0,0,1-1.1-.34,1.25,1.25,0,0,1-.37-1,4.31,4.31,0,0,1,.23-1.16l1.13-3.84a24,24,0,0,1-5.8,5,7.23,7.23,0,0,1-3.79,1.3A3,3,0,0,1,175,48.86a6.52,6.52,0,0,1-1.19-4.07,17.1,17.1,0,0,1,1.6-6.68,24.85,24.85,0,0,1,4.29-6.67A18.3,18.3,0,0,1,185.3,27,14,14,0,0,1,191.19,26a16.5,16.5,0,0,1,1.84.11Zm-3.51,4.33a13.11,13.11,0,0,0-2.57-.31,7.26,7.26,0,0,0-4.45,1.4,12.6,12.6,0,0,0-3.52,5A17.72,17.72,0,0,0,178,42.67a4.55,4.55,0,0,0,.65,2.77,2,2,0,0,0,1.69.85,6.37,6.37,0,0,0,4.19-2.11,12.52,12.52,0,0,0,3.28-6.07Z"/><path class="cls-3" d="M210.51,42.41l1,1A27.57,27.57,0,0,1,206.25,48c-2,1.37-3.66,2.05-5,2.05a1.81,1.81,0,0,1-1.44-.66,2.7,2.7,0,0,1-.57-1.82,52,52,0,0,1,1.75-9.4l3.05-12.42a53.75,53.75,0,0,1,2.8-9,13.17,13.17,0,0,1,11.73-7.3,2.84,2.84,0,0,1,1.9.58,1.77,1.77,0,0,1,.7,1.41,1.9,1.9,0,0,1-.68,1.5,2.93,2.93,0,0,1-2,.58,14.08,14.08,0,0,1-2.4-.28,15.4,15.4,0,0,0-2.51-.23,2.74,2.74,0,0,0-1.75.48,6.22,6.22,0,0,0-1.48,2.85q-.66,2.16-2.15,8.56L205.45,36.7q-2.1,8.91-2.1,9.31c0,.6.22.9.65.9a3.92,3.92,0,0,0,1.81-.73A27.83,27.83,0,0,0,210.51,42.41Z"/><path class="cls-3" d="M241.33,33.05l-3.8,15a14.66,14.66,0,0,0,2.17.2,14.22,14.22,0,0,0,3.08-.42l-.28,1.38a15.17,15.17,0,0,1-2.94.4c-.74,0-1.82-.07-3.25-.2-1.27-.13-2.31-.2-3.14-.2a25,25,0,0,0-5.23.65l.43-1.58a11.83,11.83,0,0,0,4-1.56,8.08,8.08,0,0,0,2.17-4.27l4-15.81a27.14,27.14,0,0,0,.74-3.57.87.87,0,0,0-.36-.76,2.47,2.47,0,0,0-1.4-.23l.37-1.36a29.27,29.27,0,0,0,6.82-1c-.22.72-.52,1.77-.88,3.17l-2.12,8.34a11.48,11.48,0,0,0,2.29.28A8.33,8.33,0,0,0,250.06,29a8,8,0,0,0,2.52-5.87,5.39,5.39,0,0,0-2-4.33,8.29,8.29,0,0,0-5.49-1.7,19,19,0,0,0-8.68,2.15A16.23,16.23,0,0,0,230,24.6a11.91,11.91,0,0,0-2.12,6.67,5.81,5.81,0,0,0,2.18,4.52,7.45,7.45,0,0,1,1.36,1.36,1.73,1.73,0,0,1,.25.91,1.39,1.39,0,0,1-.44,1,1.46,1.46,0,0,1-1.06.44,3.34,3.34,0,0,1-2.73-1.78A10.11,10.11,0,0,1,225.93,32a14.76,14.76,0,0,1,2.41-8.12,17.91,17.91,0,0,1,7.28-6.22,22.57,22.57,0,0,1,10.29-2.46,16.35,16.35,0,0,1,8.29,1.89,6.12,6.12,0,0,1,3.25,5.6,9.07,9.07,0,0,1-3,6.48,14.53,14.53,0,0,1-8.21,3.85c.87,1.74,1.42,2.9,1.67,3.51.39,1,1,2.73,1.8,5.15q2.86,8.48,5.91,11.95a6.54,6.54,0,0,0,4.9,2.53A3.27,3.27,0,0,0,264,53.75a5,5,0,0,1,.85-1.92,1.73,1.73,0,0,1,1.22-.5,1.53,1.53,0,0,1,1.14.48,1.6,1.6,0,0,1,.47,1.16,4.42,4.42,0,0,1-1.92,3.34,7.59,7.59,0,0,1-4.95,1.58,11,11,0,0,1-5.25-1.33,15.64,15.64,0,0,1-4.86-4.34A31,31,0,0,1,246.59,45c-.58-1.41-1.44-4-2.57-7.78-.68-2.3-1.1-3.68-1.27-4.13l-.69-.06A6.33,6.33,0,0,0,241.33,33.05Z"/><path class="cls-3" d="M275,42.13l.93,1.25Q269,50,264,50a3.65,3.65,0,0,1-3.07-1.36,7.16,7.16,0,0,1-1.06-4.36,22.9,22.9,0,0,1,3.68-12q4.13-6.81,9.87-6.82a4.29,4.29,0,0,1,3.07,1,3.61,3.61,0,0,1,1.06,2.76,6.18,6.18,0,0,1-1.27,3.62,14.76,14.76,0,0,1-4.55,3.7q-1.65.95-7,3.37a17.75,17.75,0,0,0-.26,2.91,4.6,4.6,0,0,0,.64,2.8,2.25,2.25,0,0,0,1.86.8,6.08,6.08,0,0,0,2.54-.65A36.08,36.08,0,0,0,275,42.13Zm-9.9-4.1a22.19,22.19,0,0,0,6.85-4.39,4.81,4.81,0,0,0,1.55-3.25,2.85,2.85,0,0,0-.63-1.94,2.12,2.12,0,0,0-1.66-.72,3.28,3.28,0,0,0-2,.79,7.92,7.92,0,0,0-2.23,3.17A28.62,28.62,0,0,0,265.06,38Z"/><path class="cls-3" d="M280.68,32.09l-1-1a29.81,29.81,0,0,1,5.78-4.61,8.18,8.18,0,0,1,3.68-1.14,1.54,1.54,0,0,1,.94.26.75.75,0,0,1,.34.59,4.92,4.92,0,0,1-.15.91L289,32.8a35,35,0,0,1,7.23-6,7.7,7.7,0,0,1,3.81-1.45,2.16,2.16,0,0,1,1.72.71,3,3,0,0,1,.63,2,9,9,0,0,1-.26,2q-.45,1.83-2.37,8-1.8,5.78-1.8,7.67a1.78,1.78,0,0,0,.17.87.53.53,0,0,0,.48.29c.55,0,1.41-.53,2.57-1.58.83-.76,1.67-1.46,2.5-2.1l.7,1A25.27,25.27,0,0,1,299,48.9,5.94,5.94,0,0,1,296.07,50a2,2,0,0,1-1.67-.77,4.22,4.22,0,0,1-.6-2.54q0-2.51,3.14-12.53a30.07,30.07,0,0,0,1-4.16q0-.87-1.05-.87a5.68,5.68,0,0,0-2.92,1.19,17.75,17.75,0,0,0-4.44,4.13,13.65,13.65,0,0,0-1.89,4.87l-2.29,9.89H281.1q1.18-4.24,2.07-8.13l2.51-10.76a4.88,4.88,0,0,0,.15-.94c0-.51-.19-.76-.57-.76a2.62,2.62,0,0,0-1.3.6A17.47,17.47,0,0,0,280.68,32.09Z"/><path class="cls-3" d="M314.4,21.08l4.49-1.72-2,7.92h5.86l-.46,2H316.4l-2.47,9.48a26.85,26.85,0,0,0-1.17,5.94,1.61,1.61,0,0,0,.32,1.1,1.18,1.18,0,0,0,.89.34,6.25,6.25,0,0,0,2.69-1A34.86,34.86,0,0,0,321.19,42l1.07,1.3A71.12,71.12,0,0,1,314,49a8,8,0,0,1-3.36,1,2,2,0,0,1-1.66-.76,4.06,4.06,0,0,1-.61-2.49,27.73,27.73,0,0,1,1.08-6.22l2.88-11.26h-4.58l.51-2h4.58Z"/></g></svg>